<mxfile host="app.diagrams.net" modified="2023-05-21T03:00:49.314Z" agent="Mozilla/5.0 (Macintosh; Intel Mac OS X 10_15_7) AppleWebKit/605.1.15 (KHTML, like Gecko) Version/16.4.1 Safari/605.1.15" etag="7tId3Xw6Pj_k67YeuUDX" version="21.3.2" type="device">
  <diagram id="hYBQ7G32WPA3d8-V0ymF" name="Page-1">
    <mxGraphModel dx="932" dy="800" grid="1" gridSize="10" guides="1" tooltips="1" connect="1" arrows="1" fold="1" page="1" pageScale="1" pageWidth="850" pageHeight="1100" math="0" shadow="0">
      <root>
        <mxCell id="0" />
        <mxCell id="1" parent="0" />
        <mxCell id="spilQi4P8pxM-EPze6Mc-1" value="Author" style="ellipse;whiteSpace=wrap;html=1;aspect=fixed;fontSize=15;fillColor=#d5e8d4;strokeColor=#82b366;" parent="1" vertex="1">
          <mxGeometry x="390" y="120" width="80" height="80" as="geometry" />
        </mxCell>
        <mxCell id="spilQi4P8pxM-EPze6Mc-2" value="Work" style="ellipse;whiteSpace=wrap;html=1;aspect=fixed;fontSize=15;fillColor=#e1d5e7;strokeColor=#9673a6;" parent="1" vertex="1">
          <mxGeometry x="730" y="220" width="80" height="80" as="geometry" />
        </mxCell>
        <mxCell id="spilQi4P8pxM-EPze6Mc-3" value="Concept" style="ellipse;whiteSpace=wrap;html=1;aspect=fixed;fontSize=15;fillColor=#dae8fc;strokeColor=#6c8ebf;" parent="1" vertex="1">
          <mxGeometry x="150" y="310" width="80" height="80" as="geometry" />
        </mxCell>
        <mxCell id="spilQi4P8pxM-EPze6Mc-4" value="Venue" style="ellipse;whiteSpace=wrap;html=1;aspect=fixed;fontSize=15;fillColor=#f8cecc;strokeColor=#b85450;" parent="1" vertex="1">
          <mxGeometry x="275" y="840" width="80" height="80" as="geometry" />
        </mxCell>
        <mxCell id="spilQi4P8pxM-EPze6Mc-5" value="Institution" style="ellipse;whiteSpace=wrap;html=1;aspect=fixed;fontSize=15;fillColor=#ffe6cc;strokeColor=#d79b00;" parent="1" vertex="1">
          <mxGeometry x="380" y="430" width="80" height="80" as="geometry" />
        </mxCell>
        <mxCell id="spilQi4P8pxM-EPze6Mc-6" value=":AuthorConcept" style="endArrow=classic;html=1;rounded=0;fontSize=15;exitX=0.275;exitY=1;exitDx=0;exitDy=0;exitPerimeter=0;entryX=1;entryY=0.4;entryDx=0;entryDy=0;entryPerimeter=0;" parent="1" source="spilQi4P8pxM-EPze6Mc-1" target="spilQi4P8pxM-EPze6Mc-3" edge="1">
          <mxGeometry x="-0.0668" y="5" width="50" height="50" relative="1" as="geometry">
            <mxPoint x="260" y="170" as="sourcePoint" />
            <mxPoint x="310" y="120" as="targetPoint" />
            <mxPoint as="offset" />
          </mxGeometry>
        </mxCell>
        <mxCell id="spilQi4P8pxM-EPze6Mc-8" value=":InstitutionConcept" style="endArrow=classic;html=1;rounded=0;fontSize=15;entryX=1;entryY=0.625;entryDx=0;entryDy=0;entryPerimeter=0;" parent="1" source="spilQi4P8pxM-EPze6Mc-5" target="spilQi4P8pxM-EPze6Mc-3" edge="1">
          <mxGeometry x="0.3616" y="-4" width="50" height="50" relative="1" as="geometry">
            <mxPoint x="410" y="385" as="sourcePoint" />
            <mxPoint x="460" y="295" as="targetPoint" />
            <mxPoint as="offset" />
          </mxGeometry>
        </mxCell>
        <mxCell id="spilQi4P8pxM-EPze6Mc-9" value=":ConceptAncestor&lt;br&gt;(not implemented)" style="curved=1;endArrow=classic;html=1;rounded=0;fontSize=15;entryX=0;entryY=0.5;entryDx=0;entryDy=0;exitX=0.013;exitY=0.3;exitDx=0;exitDy=0;exitPerimeter=0;" parent="1" source="spilQi4P8pxM-EPze6Mc-3" target="spilQi4P8pxM-EPze6Mc-3" edge="1">
          <mxGeometry x="-0.0484" y="-42" width="50" height="50" relative="1" as="geometry">
            <mxPoint x="160" y="320" as="sourcePoint" />
            <mxPoint x="140" y="210" as="targetPoint" />
            <Array as="points">
              <mxPoint x="100" y="320" />
            </Array>
            <mxPoint x="-8" y="-6" as="offset" />
          </mxGeometry>
        </mxCell>
        <mxCell id="spilQi4P8pxM-EPze6Mc-10" value=":RelatedConcept&lt;br&gt;(not implemented)" style="curved=1;endArrow=classic;html=1;rounded=0;fontSize=15;exitX=0;exitY=1;exitDx=0;exitDy=0;entryX=0.013;entryY=0.638;entryDx=0;entryDy=0;entryPerimeter=0;" parent="1" source="spilQi4P8pxM-EPze6Mc-3" target="spilQi4P8pxM-EPze6Mc-3" edge="1">
          <mxGeometry x="0.0387" y="2" width="50" height="50" relative="1" as="geometry">
            <mxPoint x="10" y="440" as="sourcePoint" />
            <mxPoint x="60" y="390" as="targetPoint" />
            <Array as="points">
              <mxPoint x="120" y="420" />
              <mxPoint x="130" y="370" />
            </Array>
            <mxPoint as="offset" />
          </mxGeometry>
        </mxCell>
        <mxCell id="spilQi4P8pxM-EPze6Mc-12" value=":AssociatedInstitution&lt;br&gt;(not implemented)" style="curved=1;endArrow=classic;html=1;rounded=0;fontSize=15;entryX=0.5;entryY=0;entryDx=0;entryDy=0;exitX=1;exitY=0;exitDx=0;exitDy=0;" parent="1" source="spilQi4P8pxM-EPze6Mc-5" target="spilQi4P8pxM-EPze6Mc-5" edge="1">
          <mxGeometry x="-0.2515" y="-16" width="50" height="50" relative="1" as="geometry">
            <mxPoint x="340" y="360" as="sourcePoint" />
            <mxPoint x="365" y="435" as="targetPoint" />
            <Array as="points">
              <mxPoint x="470" y="420" />
              <mxPoint x="410" y="400" />
            </Array>
            <mxPoint as="offset" />
          </mxGeometry>
        </mxCell>
        <mxCell id="spilQi4P8pxM-EPze6Mc-13" value="Society" style="ellipse;whiteSpace=wrap;html=1;aspect=fixed;fontSize=15;fillColor=#fff2cc;strokeColor=#d6b656;" parent="1" vertex="1">
          <mxGeometry x="495" y="890" width="80" height="80" as="geometry" />
        </mxCell>
        <mxCell id="spilQi4P8pxM-EPze6Mc-14" value=":VenueConcept" style="endArrow=classic;html=1;rounded=0;fontSize=15;exitX=0;exitY=0;exitDx=0;exitDy=0;entryX=0.65;entryY=0.988;entryDx=0;entryDy=0;entryPerimeter=0;" parent="1" source="spilQi4P8pxM-EPze6Mc-4" target="spilQi4P8pxM-EPze6Mc-3" edge="1">
          <mxGeometry width="50" height="50" relative="1" as="geometry">
            <mxPoint x="400" y="420" as="sourcePoint" />
            <mxPoint x="450" y="370" as="targetPoint" />
          </mxGeometry>
        </mxCell>
        <mxCell id="spilQi4P8pxM-EPze6Mc-15" value=":VenueSocieties" style="endArrow=classic;html=1;rounded=0;fontSize=15;entryX=0.163;entryY=0.075;entryDx=0;entryDy=0;entryPerimeter=0;" parent="1" source="spilQi4P8pxM-EPze6Mc-4" target="spilQi4P8pxM-EPze6Mc-13" edge="1">
          <mxGeometry width="50" height="50" relative="1" as="geometry">
            <mxPoint x="495" y="825" as="sourcePoint" />
            <mxPoint x="545" y="775" as="targetPoint" />
          </mxGeometry>
        </mxCell>
        <mxCell id="spilQi4P8pxM-EPze6Mc-19" value=":WorkAuthor" style="endArrow=classic;html=1;rounded=0;fontSize=15;exitX=0.075;exitY=0.15;exitDx=0;exitDy=0;exitPerimeter=0;entryX=1;entryY=0.375;entryDx=0;entryDy=0;entryPerimeter=0;" parent="1" source="spilQi4P8pxM-EPze6Mc-2" target="spilQi4P8pxM-EPze6Mc-1" edge="1">
          <mxGeometry width="50" height="50" relative="1" as="geometry">
            <mxPoint x="560" y="220" as="sourcePoint" />
            <mxPoint x="610" y="170" as="targetPoint" />
          </mxGeometry>
        </mxCell>
        <mxCell id="spilQi4P8pxM-EPze6Mc-21" value=":WorkConcept" style="endArrow=classic;html=1;rounded=0;fontSize=15;exitX=0;exitY=0.5;exitDx=0;exitDy=0;entryX=1;entryY=0.5;entryDx=0;entryDy=0;" parent="1" source="spilQi4P8pxM-EPze6Mc-2" target="spilQi4P8pxM-EPze6Mc-3" edge="1">
          <mxGeometry x="-0.1269" y="18" width="50" height="50" relative="1" as="geometry">
            <mxPoint x="480" y="300" as="sourcePoint" />
            <mxPoint x="530" y="250" as="targetPoint" />
            <Array as="points">
              <mxPoint x="510" y="230" />
            </Array>
            <mxPoint as="offset" />
          </mxGeometry>
        </mxCell>
        <mxCell id="spilQi4P8pxM-EPze6Mc-24" value="openalex_author_id &amp;nbsp; &amp;nbsp; &amp;nbsp; &amp;nbsp; &amp;nbsp; &amp;nbsp;c&lt;br&gt;mag_author_id &amp;nbsp; &amp;nbsp; &amp;nbsp; &amp;nbsp; &amp;nbsp; &amp;nbsp; &amp;nbsp; &amp;nbsp; &amp;nbsp; c&lt;br&gt;orc_id &amp;nbsp; &amp;nbsp; &amp;nbsp; &amp;nbsp; &amp;nbsp; &amp;nbsp; &amp;nbsp; &amp;nbsp; &amp;nbsp; &amp;nbsp; &amp;nbsp; &amp;nbsp; &amp;nbsp; &amp;nbsp; &amp;nbsp; &amp;nbsp; c&lt;br&gt;scopus_id &amp;nbsp; &amp;nbsp; &amp;nbsp; &amp;nbsp; &amp;nbsp; &amp;nbsp; &amp;nbsp; &amp;nbsp; &amp;nbsp; &amp;nbsp; &amp;nbsp; &amp;nbsp; &amp;nbsp; c&amp;nbsp;&lt;br&gt;twitter_id &amp;nbsp; &amp;nbsp; &amp;nbsp; &amp;nbsp; &amp;nbsp; &amp;nbsp; &amp;nbsp; &amp;nbsp; &amp;nbsp; &amp;nbsp; &amp;nbsp; &amp;nbsp; &amp;nbsp; &amp;nbsp;c&lt;br&gt;works_count&lt;br&gt;cited_by_count&lt;br&gt;author_created_date&lt;br&gt;author_updated_date&lt;br&gt;author_name &amp;nbsp; &amp;nbsp; &amp;nbsp; &amp;nbsp; &amp;nbsp; &amp;nbsp; &amp;nbsp; &amp;nbsp; &amp;nbsp; &amp;nbsp; &amp;nbsp;cm&lt;br&gt;author_alternative_names &amp;nbsp;cm&lt;br&gt;display_name (missing)&lt;br&gt;works_api_url" style="whiteSpace=wrap;html=1;fontSize=11;align=left;verticalAlign=middle;labelPosition=center;verticalLabelPosition=middle;" parent="1" vertex="1">
          <mxGeometry x="250" y="70" width="150" height="180" as="geometry" />
        </mxCell>
        <mxCell id="spilQi4P8pxM-EPze6Mc-25" value="openalex_concept_id &amp;nbsp; &amp;nbsp; &amp;nbsp;c&lt;br&gt;wikidata_concept_id &amp;nbsp; &amp;nbsp; &amp;nbsp; &amp;nbsp;c&lt;br&gt;mag_concept_id &amp;nbsp; &amp;nbsp; &amp;nbsp; &amp;nbsp; &amp;nbsp; &amp;nbsp; &amp;nbsp;c&lt;br&gt;wikipedia_concept_id &amp;nbsp; &amp;nbsp; &amp;nbsp;c&lt;br&gt;umls_aui_id &amp;nbsp; &amp;nbsp; &amp;nbsp; &amp;nbsp; &amp;nbsp; &amp;nbsp; &amp;nbsp; &amp;nbsp; &amp;nbsp; &amp;nbsp; &amp;nbsp; cm&lt;br&gt;umls_cui_id &amp;nbsp; &amp;nbsp; &amp;nbsp; &amp;nbsp; &amp;nbsp; &amp;nbsp; &amp;nbsp; &amp;nbsp; &amp;nbsp; &amp;nbsp; &amp;nbsp; cm&lt;br&gt;works_count&lt;br&gt;cited_by_count&lt;br&gt;concept_created_date&lt;br&gt;concept_updated_date&lt;br&gt;concept_name &amp;nbsp; &amp;nbsp; &amp;nbsp; &amp;nbsp; &amp;nbsp; &amp;nbsp; &amp;nbsp; &amp;nbsp; c&lt;br&gt;level&lt;br&gt;description" style="whiteSpace=wrap;html=1;fontSize=11;align=left;verticalAlign=top;" parent="1" vertex="1">
          <mxGeometry x="60" y="140" width="170" height="180" as="geometry" />
        </mxCell>
        <mxCell id="spilQi4P8pxM-EPze6Mc-26" value="openalex_institution_id &amp;nbsp; &amp;nbsp; &amp;nbsp; &amp;nbsp; &amp;nbsp; c&lt;br&gt;ror &amp;nbsp; &amp;nbsp; &amp;nbsp; &amp;nbsp; &amp;nbsp; &amp;nbsp; &amp;nbsp; &amp;nbsp; &amp;nbsp; &amp;nbsp; &amp;nbsp; &amp;nbsp; &amp;nbsp; &amp;nbsp; &amp;nbsp; &amp;nbsp; &amp;nbsp; &amp;nbsp; &amp;nbsp; &amp;nbsp; &amp;nbsp; c&lt;br&gt;wikidata_institution_id &amp;nbsp; &amp;nbsp; &amp;nbsp; &amp;nbsp; &amp;nbsp; &amp;nbsp; c&lt;br&gt;grid_id &amp;nbsp; &amp;nbsp; &amp;nbsp; &amp;nbsp; &amp;nbsp; &amp;nbsp; &amp;nbsp; &amp;nbsp; &amp;nbsp; &amp;nbsp; &amp;nbsp; &amp;nbsp; &amp;nbsp; &amp;nbsp; &amp;nbsp; &amp;nbsp; &amp;nbsp; &amp;nbsp;c&lt;br&gt;wikipedia_institution_id &amp;nbsp; &amp;nbsp; &amp;nbsp; &amp;nbsp; &amp;nbsp;c&lt;br&gt;works_count&lt;br&gt;cited_by_count&lt;br&gt;institution_created_date&lt;br&gt;institution_updated_date&lt;br&gt;institution_name &amp;nbsp; &amp;nbsp; &amp;nbsp; &amp;nbsp; &amp;nbsp; &amp;nbsp; &amp;nbsp; &amp;nbsp; &amp;nbsp; &amp;nbsp; cm&lt;br&gt;institution_alternative_names cm&lt;br&gt;city &amp;nbsp; &amp;nbsp; &amp;nbsp; &amp;nbsp; &amp;nbsp; &amp;nbsp; &amp;nbsp; &amp;nbsp; &amp;nbsp; &amp;nbsp; &amp;nbsp; &amp;nbsp; &amp;nbsp; &amp;nbsp; &amp;nbsp; &amp;nbsp; &amp;nbsp; &amp;nbsp; &amp;nbsp; &amp;nbsp;c&lt;br&gt;country_code &amp;nbsp; &amp;nbsp; &amp;nbsp; &amp;nbsp; &amp;nbsp; &amp;nbsp; &amp;nbsp; &amp;nbsp; &amp;nbsp; &amp;nbsp; &amp;nbsp; &amp;nbsp;c&lt;br&gt;geonames_city_id &amp;nbsp; &amp;nbsp; &amp;nbsp; &amp;nbsp; &amp;nbsp; &amp;nbsp; &amp;nbsp; &amp;nbsp;c&lt;br&gt;homepage_url&lt;br&gt;institution_type &amp;nbsp; &amp;nbsp; &amp;nbsp; &amp;nbsp; &amp;nbsp; &amp;nbsp; &amp;nbsp; &amp;nbsp; &amp;nbsp; &amp;nbsp; &amp;nbsp;c" style="whiteSpace=wrap;html=1;fontSize=11;align=left;verticalAlign=top;" parent="1" vertex="1">
          <mxGeometry x="310" y="480" width="170" height="220" as="geometry" />
        </mxCell>
        <mxCell id="spilQi4P8pxM-EPze6Mc-27" value=":WorkInstitution" style="endArrow=classic;html=1;rounded=0;fontSize=15;exitX=0;exitY=1;exitDx=0;exitDy=0;entryX=1;entryY=0.5;entryDx=0;entryDy=0;" parent="1" source="spilQi4P8pxM-EPze6Mc-2" target="spilQi4P8pxM-EPze6Mc-5" edge="1">
          <mxGeometry width="50" height="50" relative="1" as="geometry">
            <mxPoint x="620" y="370" as="sourcePoint" />
            <mxPoint x="670" y="320" as="targetPoint" />
          </mxGeometry>
        </mxCell>
        <mxCell id="spilQi4P8pxM-EPze6Mc-28" value=":WorkHostVenue" style="endArrow=classic;html=1;rounded=0;fontSize=15;exitX=0.288;exitY=1.013;exitDx=0;exitDy=0;exitPerimeter=0;entryX=0.975;entryY=0.238;entryDx=0;entryDy=0;entryPerimeter=0;" parent="1" source="spilQi4P8pxM-EPze6Mc-2" target="spilQi4P8pxM-EPze6Mc-4" edge="1">
          <mxGeometry width="50" height="50" relative="1" as="geometry">
            <mxPoint x="400" y="680" as="sourcePoint" />
            <mxPoint x="450" y="630" as="targetPoint" />
            <Array as="points">
              <mxPoint x="540" y="740" />
            </Array>
          </mxGeometry>
        </mxCell>
        <mxCell id="spilQi4P8pxM-EPze6Mc-29" value=":Related&lt;br&gt;(not implemented)" style="curved=1;endArrow=classic;html=1;rounded=0;fontSize=15;exitX=0.175;exitY=0.063;exitDx=0;exitDy=0;exitPerimeter=0;entryX=0.375;entryY=0.013;entryDx=0;entryDy=0;entryPerimeter=0;" parent="1" source="spilQi4P8pxM-EPze6Mc-2" target="spilQi4P8pxM-EPze6Mc-2" edge="1">
          <mxGeometry x="-0.0738" y="25" width="50" height="50" relative="1" as="geometry">
            <mxPoint x="680" y="110" as="sourcePoint" />
            <mxPoint x="730" y="60" as="targetPoint" />
            <Array as="points">
              <mxPoint x="690" y="160" />
              <mxPoint x="710" y="130" />
            </Array>
            <mxPoint as="offset" />
          </mxGeometry>
        </mxCell>
        <mxCell id="spilQi4P8pxM-EPze6Mc-30" value=":Referenced" style="curved=1;endArrow=classic;html=1;rounded=0;fontSize=15;exitX=0.6;exitY=-0.025;exitDx=0;exitDy=0;exitPerimeter=0;entryX=0.75;entryY=0.075;entryDx=0;entryDy=0;entryPerimeter=0;" parent="1" source="spilQi4P8pxM-EPze6Mc-2" target="spilQi4P8pxM-EPze6Mc-2" edge="1">
          <mxGeometry width="50" height="50" relative="1" as="geometry">
            <mxPoint x="760" y="90" as="sourcePoint" />
            <mxPoint x="820" y="220" as="targetPoint" />
            <Array as="points">
              <mxPoint x="780" y="140" />
              <mxPoint x="820" y="160" />
            </Array>
          </mxGeometry>
        </mxCell>
        <mxCell id="spilQi4P8pxM-EPze6Mc-31" value="openalex_work_id &amp;nbsp; &amp;nbsp; &amp;nbsp;c&lt;br&gt;doi &amp;nbsp; &amp;nbsp; &amp;nbsp; &amp;nbsp; &amp;nbsp; &amp;nbsp; &amp;nbsp; &amp;nbsp; &amp;nbsp; &amp;nbsp; &amp;nbsp; &amp;nbsp; &amp;nbsp; &amp;nbsp; &amp;nbsp;c&lt;br&gt;mag_work_id &amp;nbsp; &amp;nbsp; &amp;nbsp; &amp;nbsp; &amp;nbsp; &amp;nbsp; &amp;nbsp;c&lt;br&gt;pmid &amp;nbsp; &amp;nbsp; &amp;nbsp; &amp;nbsp; &amp;nbsp; &amp;nbsp; &amp;nbsp; &amp;nbsp; &amp;nbsp; &amp;nbsp; &amp;nbsp; &amp;nbsp; &amp;nbsp; c&lt;br&gt;pmcid (missing) &amp;nbsp; &amp;nbsp; &amp;nbsp; &amp;nbsp; &amp;nbsp;c&lt;br&gt;cited_by_count&lt;br&gt;work_created_date&lt;br&gt;work_updated_date&lt;br&gt;publication_date &amp;nbsp; &amp;nbsp; &amp;nbsp; &amp;nbsp;cm&lt;br&gt;publication_name &amp;nbsp; &amp;nbsp; &amp;nbsp;cm&lt;br&gt;title &amp;nbsp; &amp;nbsp; &amp;nbsp; &amp;nbsp; &amp;nbsp; &amp;nbsp; &amp;nbsp; &amp;nbsp; &amp;nbsp; &amp;nbsp; &amp;nbsp; &amp;nbsp; &amp;nbsp; &amp;nbsp; cm&lt;br&gt;work_is_oa &amp;nbsp; &amp;nbsp; &amp;nbsp; &amp;nbsp; &amp;nbsp; &amp;nbsp; &amp;nbsp; &amp;nbsp; &amp;nbsp; &amp;nbsp; &amp;nbsp; &amp;nbsp; &amp;nbsp;c&lt;br&gt;work_oa_status &amp;nbsp; &amp;nbsp; &amp;nbsp; &amp;nbsp; &amp;nbsp; &amp;nbsp; &amp;nbsp; &amp;nbsp; &amp;nbsp; c&lt;br&gt;work_oa_url &amp;nbsp; &amp;nbsp; &amp;nbsp; &amp;nbsp; &amp;nbsp; &amp;nbsp; &amp;nbsp; &amp;nbsp; &amp;nbsp; &amp;nbsp; &amp;nbsp; &amp;nbsp;&lt;br&gt;type &amp;nbsp; &amp;nbsp; &amp;nbsp; &amp;nbsp; &amp;nbsp; &amp;nbsp; &amp;nbsp; &amp;nbsp; &amp;nbsp; &amp;nbsp; &amp;nbsp; &amp;nbsp; &amp;nbsp; &amp;nbsp;c&lt;br&gt;is_retracted&lt;br&gt;is_paratext&lt;br&gt;cited_by_api_url" style="whiteSpace=wrap;html=1;fontSize=11;align=left;verticalAlign=top;" parent="1" vertex="1">
          <mxGeometry x="660" y="280" width="180" height="250" as="geometry" />
        </mxCell>
        <mxCell id="spilQi4P8pxM-EPze6Mc-32" value="openalex_venue_id &amp;nbsp; &amp;nbsp; &amp;nbsp; &amp;nbsp;c&lt;br&gt;issn_l &amp;nbsp; &amp;nbsp; &amp;nbsp; &amp;nbsp; &amp;nbsp; &amp;nbsp; &amp;nbsp; &amp;nbsp; &amp;nbsp; &amp;nbsp; &amp;nbsp; &amp;nbsp; &amp;nbsp; &amp;nbsp; &amp;nbsp;c&lt;br&gt;mag_venue_id&lt;br&gt;issns &amp;nbsp; &amp;nbsp; &amp;nbsp; &amp;nbsp; &amp;nbsp; &amp;nbsp; &amp;nbsp; &amp;nbsp; &amp;nbsp; &amp;nbsp; &amp;nbsp; &amp;nbsp; &amp;nbsp; &amp;nbsp; &amp;nbsp; cm&lt;br&gt;fatcat_id &amp;nbsp; &amp;nbsp; &amp;nbsp; &amp;nbsp; &amp;nbsp; &amp;nbsp; &amp;nbsp; &amp;nbsp; &amp;nbsp; &amp;nbsp; &amp;nbsp; &amp;nbsp; c&lt;br&gt;wikidata_venue_id &amp;nbsp; &amp;nbsp; &amp;nbsp; &amp;nbsp; c&lt;br&gt;works_count&lt;br&gt;cited_by_count&lt;br&gt;venue_created_date&lt;br&gt;venue_updated_date&lt;br&gt;venue_name&lt;span style=&quot;white-space: pre;&quot;&gt; &lt;span style=&quot;white-space: pre;&quot;&gt;       c&lt;/span&gt;&lt;/span&gt;&lt;br&gt;venue_display_name &amp;nbsp;(missing)&lt;br&gt;publisher_name &amp;nbsp; &amp;nbsp; &amp;nbsp; &amp;nbsp; &amp;nbsp; &amp;nbsp;c&lt;br&gt;homepage_url&lt;br&gt;apc_usd&lt;br&gt;venue_is_oa&lt;br&gt;is_in_doaj" style="whiteSpace=wrap;html=1;fontSize=11;align=left;verticalAlign=top;" parent="1" vertex="1">
          <mxGeometry x="120" y="840" width="160" height="230" as="geometry" />
        </mxCell>
        <mxCell id="spilQi4P8pxM-EPze6Mc-33" value="(societies not currently supported)&lt;br&gt;society_url&lt;br&gt;organization" style="whiteSpace=wrap;html=1;fontSize=11;align=left;verticalAlign=top;" parent="1" vertex="1">
          <mxGeometry x="450" y="950" width="170" height="80" as="geometry" />
        </mxCell>
        <mxCell id="POZUu7Ot7JV2obCLSrtn-1" value="OpenAlex Graph Schema 3/9/23&lt;br style=&quot;font-size: 17px;&quot;&gt;" style="text;html=1;align=center;verticalAlign=middle;resizable=0;points=[];autosize=1;strokeColor=none;fillColor=none;fontSize=17;fontStyle=5" parent="1" vertex="1">
          <mxGeometry x="275" y="15" width="280" height="30" as="geometry" />
        </mxCell>
        <mxCell id="POZUu7Ot7JV2obCLSrtn-4" value="&lt;font style=&quot;font-size: 15px;&quot;&gt;&lt;u&gt;Legend:&lt;/u&gt;&lt;br&gt;&lt;/font&gt;&lt;div style=&quot;text-align: left; font-size: 15px;&quot;&gt;&lt;font style=&quot;font-size: 15px;&quot;&gt;c &amp;nbsp; &amp;nbsp; &amp;nbsp; &amp;nbsp;composite index&lt;/font&gt;&lt;/div&gt;&lt;div style=&quot;text-align: left; font-size: 15px;&quot;&gt;&lt;font style=&quot;font-size: 15px;&quot;&gt;m &amp;nbsp; &amp;nbsp; &amp;nbsp; &amp;nbsp; &amp;nbsp; &amp;nbsp; &amp;nbsp;mixed index&lt;/font&gt;&lt;/div&gt;&lt;div style=&quot;text-align: left; font-size: 15px;&quot;&gt;&lt;font style=&quot;font-size: 15px;&quot;&gt;&lt;br&gt;&lt;/font&gt;&lt;/div&gt;&lt;div style=&quot;text-align: left; font-size: 15px;&quot;&gt;&lt;font style=&quot;font-size: 15px;&quot;&gt;&lt;br&gt;&lt;/font&gt;&lt;/div&gt;&lt;div style=&quot;text-align: left; font-size: 15px;&quot;&gt;&lt;font style=&quot;font-size: 15px;&quot;&gt;1. All fields are returnable&lt;/font&gt;&lt;/div&gt;&lt;div style=&quot;text-align: left; font-size: 15px;&quot;&gt;&lt;font style=&quot;font-size: 15px;&quot;&gt;2. All searchable fields are &lt;/font&gt;indexed&lt;/div&gt;" style="rounded=1;whiteSpace=wrap;html=1;verticalAlign=top;" parent="1" vertex="1">
          <mxGeometry x="650" y="800" width="170" height="190" as="geometry" />
        </mxCell>
      </root>
    </mxGraphModel>
  </diagram>
</mxfile>
